#!OML:ASF H:\ManfredETheater\Project 1\Capture day 1\Session 1\subject.ASF
:FULLY-SPECIFIED
:DEGREES
64
root 1.43254 16.0724 -3.78757 -5.95566 4.00354 0.0834945
lowerback 4.39182 -0.598554 -3.24222
upperback 0.353826 -0.923364 1.53428
thorax -2.02214 -0.427388 3.45795
lowerneck -19.2207 -1.87307 -2.48389
upperneck 23.1648 -1.96492 0.394744
head 10.6625 -1.07182 0.268091
rclavicle 6.21202e-016 1.78906e-014
rhumerus 26.0082 3.64823 -43.3624
rradius 69.3654
rwrist 9.49591
rhand 6.42919 -21.609
rfingers 7.12502
rthumb 31.7322 -48.8683
lclavicle 6.21202e-016 1.78906e-014
lhumerus 25.7058 -1.41283 59.8701
lradius 74.7356
lwrist -23.4612
lhand 14.2762 16.1329
lfingers 7.12502
lthumb 39.1699 41.604
rfemur -15.6455 -15.7452 7.88386
rtibia 63.3469
rfoot -33.2779 0.816315
rtoes -12.5597
lfemur -17.8667 5.47747 -10.7566
ltibia 63.6599
lfoot -34.532 -3.50826
ltoes -12.9925
65
root 1.43096 16.0735 -3.7858 -5.95973 4.00601 0.0883047
lowerback 4.39648 -0.602483 -3.25413
upperback 0.35501 -0.929417 1.52971
thorax -2.02291 -0.430328 3.46036
lowerneck -19.2507 -1.86497 -2.48391
upperneck 23.2052 -1.95499 0.402965
head 10.683 -1.06631 0.272145
rclavicle 1.07344e-014 -1.74931e-014
rhumerus 26.004 3.65618 -43.3745
rradius 69.3773
rwrist 9.51229
rhand 6.43612 -21.6214
rfingers 7.12502
rthumb 31.7388 -48.8794
lclavicle 1.07344e-014 -1.74931e-014
lhumerus 25.6901 -1.40292 59.8585
lradius 74.7414
lwrist -23.4634
lhand 14.2791 16.1369
lfingers 7.12502
lthumb 39.1726 41.6073
rfemur -15.634 -15.7533 7.88166
rtibia 63.3437
rfoot -33.2842 0.82594
rtoes -12.5178
lfemur -17.8539 5.48155 -10.753
ltibia 63.6544
lfoot -34.529 -3.52143
ltoes -13.0051
66
root 1.43027 16.0732 -3.78477 -5.94683 3.98093 0.0815497
lowerback 4.37831 -0.589831 -3.25748
upperback 0.360555 -0.912045 1.53451
thorax -2.00834 -0.421992 3.46584
lowerneck -19.2651 -1.87048 -2.50553
upperneck 23.2051 -1.96307 0.431155
head 10.6864 -1.06835 0.284563
rclavicle 6.96989e-015 6.36111e-015
rhumerus 26.0088 3.64044 -43.3672
rradius 69.3845
rwrist 9.51774
rhand 6.43737 -21.6007
rfingers 7.12502
rthumb 31.74 -48.8585
lclavicle 6.96989e-015 6.36111e-015
lhumerus 25.713 -1.40582 59.8703
lradius 74.7352
lwrist -23.4491
lhand 14.2682 16.1241
lfingers 7.12502
lthumb 39.1624 41.5974
rfemur -15.6543 -15.74 7.89761
rtibia 63.344
rfoot -33.2805 0.845665
rtoes -12.5284
lfemur -17.857 5.4969 -10.7403
ltibia 63.6544
lfoot -34.5229 -3.53283
ltoes -12.9269
67
root 1.42982 16.0738 -3.78333 -5.93944 3.98646 0.106671
lowerback 4.38967 -0.586811 -3.27583
upperback 0.343598 -0.90963 1.5216
thorax -2.03232 -0.419913 3.46308
lowerneck -19.242 -1.8781 -2.51136
upperneck 23.223 -1.97301 0.432043
head 10.6889 -1.07344 0.28452
rclavicle -1.39149e-015 4.77083e-015
rhumerus 25.9948 3.64931 -43.3691
rradius 69.3865
rwrist 9.50402
rhand 6.4354 -21.6003
rfingers 7.12502
rthumb 31.7381 -48.8585
lclavicle -1.39149e-015 4.77083e-015
lhumerus 25.6954 -1.42727 59.8765
lradius 74.7522
lwrist -23.4302
lhand 14.2775 16.1387
lfingers 7.12502
lthumb 39.1711 41.6095
rfemur -15.6503 -15.7576 7.86479
rtibia 63.3439
rfoot -33.2809 0.854814
rtoes -12.5959
lfemur -17.8586 5.48641 -10.7689
ltibia 63.6533
lfoot -34.5242 -3.53145
ltoes -12.9126
68
root 1.42871 16.0751 -3.78159 -5.93772 3.94505 0.0495785
lowerback 4.37516 -0.579321 -3.22279
upperback 0.34916 -0.896255 1.53677
thorax -2.02013 -0.413971 3.44775
lowerneck -19.251 -1.87587 -2.50584
upperneck 23.236 -1.97015 0.427431
head 10.6952 -1.07223 0.282253
rclavicle 7.82715e-016 1.39149e-014
rhumerus 26.0089 3.65373 -43.3767
rradius 69.3953
rwrist 9.5055
rhand 6.45461 -21.6338
rfingers 7.12502
rthumb 31.7564 -48.8883
lclavicle 7.82715e-016 1.39149e-014
lhumerus 25.7005 -1.41896 59.8746
lradius 74.7574
lwrist -23.4228
lhand 14.3176 16.1197
lfingers 7.12502
lthumb 39.2089 41.5795
rfemur -15.6616 -15.7267 7.9466
rtibia 63.3384
rfoot -33.271 0.844813
rtoes -12.5996
lfemur -17.8489 5.51751 -10.6923
ltibia 63.6533
lfoot -34.5296 -3.55063
ltoes -12.9026
69
root 1.42759 16.0742 -3.78096 -5.9201 3.92806 0.0691132
lowerback 4.36914 -0.571859 -3.24651
upperback 0.341541 -0.887478 1.53028
thorax -2.02509 -0.409186 3.4539
lowerneck -19.2487 -1.87216 -2.50453
upperneck 23.2419 -1.96463 0.424481
head 10.6968 -1.06998 0.281794
rclavicle -7.7526e-015 1.27222e-014
rhumerus 26.0145 3.65473 -43.3797
rradius 69.3931
rwrist 9.48215
rhand 6.47097 -21.6087
rfingers 7.12502
rthumb 31.772 -48.8602
lclavicle -7.7526e-015 1.27222e-014
lhumerus 25.6981 -1.41926 59.8803
lradius 74.7675
lwrist -23.4017
lhand 14.3122 16.1399
lfingers 7.12502
lthumb 39.2039 41.6013
rfemur -15.6913 -15.7174 7.93526
rtibia 63.3463
rfoot -33.2658 0.871378
rtoes -12.5605
lfemur -17.8632 5.52614 -10.7106
ltibia 63.6554
lfoot -34.5193 -3.53929
ltoes -12.9509
70
root 1.42579 16.0741 -3.77955 -5.93127 3.90349 0.0300674
lowerback 4.37037 -0.570866 -3.2244
upperback 0.347739 -0.884792 1.54321
thorax -2.01974 -0.408195 3.45461
lowerneck -19.253 -1.86282 -2.51675
upperneck 23.2505 -1.95444 0.450175
head 10.701 -1.06322 0.294519
rclavicle 5.67779e-015 -2.98177e-014
rhumerus 26.0285 3.66364 -43.3949
rradius 69.3918
rwrist 9.48786
rhand 6.49406 -21.5986
rfingers 7.12502
rthumb 31.794 -48.8456
lclavicle 5.67779e-015 -2.98177e-014
lhumerus 25.6994 -1.41116 59.8778
lradius 74.764
lwrist -23.4112
lhand 14.3059 16.1391
lfingers 7.12502
lthumb 39.1979 41.6022
rfemur -15.6819 -15.6851 7.99506
rtibia 63.344
rfoot -33.2649 0.84283
rtoes -12.5887
lfemur -17.8419 5.54457 -10.6492
ltibia 63.6549
lfoot -34.5292 -3.55584
ltoes -12.888
71
root 1.42437 16.0739 -3.77806 -5.9276 3.87619 0.0381526
lowerback 4.369 -0.560245 -3.2393
upperback 0.342977 -0.871426 1.53945
thorax -2.02484 -0.401225 3.45838
lowerneck -19.2548 -1.86354 -2.50191
upperneck 23.267 -1.95547 0.432749
head 10.7071 -1.06459 0.285564
rclavicle -4.11236e-015 8.34896e-015
rhumerus 26.0205 3.67164 -43.3951
rradius 69.39
rwrist 9.47796
rhand 6.47507 -21.5956
rfingers 7.12502
rthumb 31.7759 -48.8462
lclavicle -4.11236e-015 8.34896e-015
lhumerus 25.6864 -1.42212 59.8659
lradius 74.7657
lwrist -23.4465
lhand 14.2806 16.1132
lfingers 7.12502
lthumb 39.1741 41.5831
rfemur -15.6948 -15.6583 7.99971
rtibia 63.3489
rfoot -33.2706 0.854989
rtoes -12.512
lfemur -17.8317 5.56034 -10.65
ltibia 63.6508
lfoot -34.5271 -3.52572
ltoes -12.9643
72
root 1.42334 16.0742 -3.77617 -5.92484 3.85374 0.0216592
lowerback 4.36695 -0.559072 -3.22618
upperback 0.33726 -0.869073 1.54507
thorax -2.02988 -0.399952 3.45669
lowerneck -19.2187 -1.85769 -2.49677
upperneck 23.2345 -1.94661 0.42099
head 10.6879 -1.06157 0.282181
rclavicle -2.06239e-015 1.98785e-015
rhumerus 26.0228 3.69626 -43.3906
rradius 69.3893
rwrist 9.4688
rhand 6.46229 -21.5808
rfingers 7.12502
rthumb 31.7637 -48.8338
lclavicle -2.06239e-015 1.98785e-015
lhumerus 25.6555 -1.42318 59.855
lradius 74.7821
lwrist -23.4483
lhand 14.2719 16.1216
lfingers 7.12502
lthumb 39.1659 41.5939
rfemur -15.6985 -15.6333 8.02985
rtibia 63.3462
rfoot -33.2685 0.840428
rtoes -12.5195
lfemur -17.8168 5.57032 -10.6246
ltibia 63.6473
lfoot -34.5362 -3.52153
ltoes -12.9354
73
root 1.42134 16.0744 -3.77431 -5.94532 3.83409 -0.00637242
lowerback 4.36993 -0.551862 -3.21569
upperback 0.350969 -0.858831 1.55064
thorax -2.01835 -0.395354 3.45585
lowerneck -19.2303 -1.86188 -2.48543
upperneck 23.2469 -1.95573 0.420663
head 10.6946 -1.06477 0.278692
rclavicle -1.3331e-014 -1.63003e-014
rhumerus 26.0513 3.67912 -43.4146
rradius 69.4037
rwrist 9.49318
rhand 6.52322 -21.6214
rfingers 7.12502
rthumb 31.8217 -48.8629
lclavicle -1.3331e-014 -1.63003e-014
lhumerus 25.6766 -1.42289 59.8568
lradius 74.7821
lwrist -23.4486
lhand 14.2958 16.1542
lfingers 7.12502
lthumb 39.1884 41.62
rfemur -15.6737 -15.6092 8.07087
rtibia 63.3472
rfoot -33.2849 0.827799
rtoes -12.5203
lfemur -17.7839 5.58087 -10.5782
ltibia 63.641
lfoot -34.5495 -3.49243
ltoes -13.0594
74
root 1.42023 16.0744 -3.77342 -5.9333 3.8309 -0.000322515
lowerback 4.36641 -0.550927 -3.22885
upperback 0.344433 -0.858138 1.55193
thorax -2.02296 -0.394695 3.46458
lowerneck -19.229 -1.86429 -2.49931
upperneck 23.2546 -1.95516 0.421911
head 10.6974 -1.06563 0.281525
rclavicle -2.17421e-015 -1.47101e-014
rhumerus 26.0586 3.69 -43.4054
rradius 69.4031
rwrist 9.52937
rhand 6.48796 -21.6345
rfingers 7.12502
rthumb 31.7882 -48.8827
lclavicle -2.17421e-015 -1.47101e-014
lhumerus 25.6664 -1.42285 59.858
lradius 74.78
lwrist -23.4309
lhand 14.3096 16.1472
lfingers 7.12502
lthumb 39.2014 41.6092
rfemur -15.689 -15.6109 8.07199
rtibia 63.3543
rfoot -33.2824 0.826644
rtoes -12.5177
lfemur -17.7924 5.57225 -10.5823
ltibia 63.6439
lfoot -34.5501 -3.51986
ltoes -12.9835
75
root 1.41877 16.0737 -3.77174 -5.93012 3.8066 0.00423884
lowerback 4.3561 -0.546946 -3.23604
upperback 0.347377 -0.853044 1.54379
thorax -2.01459 -0.392335 3.45973
lowerneck -19.2148 -1.85901 -2.48382
upperneck 23.2363 -1.95233 0.419578
head 10.6877 -1.06323 0.278694
rclavicle 1.7903e-014 2.5842e-014
rhumerus 26.0613 3.69598 -43.4228
rradius 69.4057
rwrist 9.54355
rhand 6.47531 -21.6215
rfingers 7.12502
rthumb 31.7761 -48.8721
lclavicle 1.7903e-014 2.5842e-014
lhumerus 25.6719 -1.42078 59.8397
lradius 74.7747
lwrist -23.4282
lhand 14.2696 16.1617
lfingers 7.12502
lthumb 39.1637 41.6347
rfemur -15.6994 -15.5717 8.08057
rtibia 63.3647
rfoot -33.2923 0.816594
rtoes -12.4969
lfemur -17.7841 5.5829 -10.5815
ltibia 63.6474
lfoot -34.5561 -3.48397
ltoes -13.0579
76
root 1.4168 16.0731 -3.77088 -5.92445 3.77853 -0.0385492
lowerback 4.34462 -0.536115 -3.20818
upperback 0.348479 -0.836548 1.56058
thorax -2.00855 -0.384413 3.46024
lowerneck -19.2254 -1.86461 -2.51741
upperneck 23.2469 -1.95436 0.43825
head 10.6943 -1.06482 0.290587
rclavicle -5.81445e-015 1.03368e-014
rhumerus 26.0597 3.68794 -43.411
rradius 69.3993
rwrist 9.55368
rhand 6.47084 -21.6144
rfingers 7.12502
rthumb 31.7719 -48.8658
lclavicle -5.81445e-015 1.03368e-014
lhumerus 25.6949 -1.42017 59.8558
lradius 74.7527
lwrist -23.4471
lhand 14.2755 16.1326
lfingers 7.12502
lthumb 39.1692 41.6039
rfemur -15.7234 -15.5376 8.15388
rtibia 63.3788
rfoot -33.2818 0.768944
rtoes -12.6169
lfemur -17.7931 5.59959 -10.5185
ltibia 63.6585
lfoot -34.5555 -3.50757
ltoes -13.0252
77
root 1.41435 16.0727 -3.76947 -5.93312 3.73782 -0.0670115
lowerback 4.35752 -0.528248 -3.19988
upperback 0.345887 -0.825863 1.56832
thorax -2.01934 -0.378859 3.46318
lowerneck -19.194 -1.8674 -2.49346
upperneck 23.2206 -1.96225 0.421636
head 10.6783 -1.06839 0.279787
rclavicle -4.39811e-015 1.51076e-014
rhumerus 26.0644 3.6994 -43.4344
rradius 69.3911
rwrist 9.56526
rhand 6.47807 -21.6145
rfingers 7.12502
rthumb 31.7787 -48.8646
lclavicle -4.39811e-015 1.51076e-014
lhumerus 25.6804 -1.41289 59.8387
lradius 74.7512
lwrist -23.4585
lhand 14.2865 16.1356
lfingers 7.12502
lthumb 39.1796 41.604
rfemur -15.7308 -15.4725 8.21096
rtibia 63.391
rfoot -33.288 0.769873
rtoes -12.5119
lfemur -17.7756 5.62639 -10.4684
ltibia 63.6653
lfoot -34.5631 -3.50937
ltoes -13.0018
